<?xml version="1.0" standalone="no"?><svg xmlns="http://www.w3.org/2000/svg" width="200" height="200" viewBox="0 0 200 200"><desc>Jonathan Dasheng Zhang | dashengz.com</desc><g fill="#000000"><path d="M200 101.4L200 200 0.8 200C-0.6 180.8-1.9 158.5 13 128.8 27 100.9 74.5 93.1 108.2 90.9L106.6 90.9 120.5 74.8C114.8 65.1 114.8 55.4 120.6 45.8 129.3 31.2 151 19.1 154.7 14.2 157.2 10.9 157.2 6.2 154.7 0 158.2 1.1 160 3.9 160 8.6 160 13.3 161.9 10.4 165.8 0 166.5 0.1 167.6 3.9 169.1 11.5 170.3 17.4 170.7 34 164.2 48.2 158.4 61 146.2 71.8 138.1 75L135.7 90.1C136.7 90.1 137.6 90.1 138.4 90.1 151.9 90.1 178.4 92.2 200 101.4Z"/></g></svg>